<?xml version="1.0" encoding="UTF-8"?>
<svg xmlns="http://www.w3.org/2000/svg" xmlns:xlink="http://www.w3.org/1999/xlink" width="190.93pt" height="190.93pt" viewBox="0 0 190.93 190.93" version="1.1">
<defs>
<clipPath id="clip1">
  <path d="M 0 0 L 190.929688 0 L 190.929688 190.929688 L 0 190.929688 Z M 0 0 "/>
</clipPath>
</defs>
<g id="surface1">
<g clip-path="url(#clip1)" clip-rule="nonzero">
<path style=" stroke:none;fill-rule:nonzero;fill:rgb(13.699341%,12.199402%,12.5%);fill-opacity:1;" d="M 142.976563 74.054688 L 143.035156 77.082031 C 143.035156 108.136719 119.382813 143.960938 76.140625 143.960938 C 62.867188 143.960938 50.519531 140.070313 40.136719 133.355469 C 41.941406 133.597656 43.820313 133.714844 45.730469 133.714844 C 56.753906 133.714844 66.878906 129.925781 74.917969 123.632813 C 64.613281 123.453125 55.992188 116.636719 52.964844 107.316406 C 54.410156 107.613281 55.871094 107.730469 57.394531 107.730469 C 59.539063 107.730469 61.644531 107.433594 63.570313 106.910156 C 52.84375 104.75 44.746094 95.261719 44.746094 83.898438 L 44.746094 83.601563 C 47.894531 85.359375 51.503906 86.402344 55.351563 86.523438 C 49.054688 82.332031 44.925781 75.097656 44.925781 67 C 44.925781 62.6875 46.089844 58.617188 48.132813 55.171875 C 59.660156 69.386719 77.023438 78.707031 96.546875 79.707031 C 96.128906 78.007813 95.964844 76.203125 95.964844 74.335938 C 95.964844 61.40625 106.449219 50.859375 119.441406 50.859375 C 126.199219 50.859375 132.3125 53.726563 136.621094 58.257813 C 141.933594 57.214844 146.988281 55.289063 151.539063 52.605469 C 149.792969 58.09375 146.066406 62.6875 141.171875 65.597656 C 145.945313 65.015625 150.492188 63.734375 154.6875 61.867188 C 151.539063 66.597656 147.527344 70.726563 142.976563 74.054688 Z M 155.089844 0 L 35.765625 0 C 16.019531 0 0 16.019531 0 35.765625 L 0 155.085938 C 0 174.910156 16.019531 190.929688 35.765625 190.929688 L 155.089844 190.929688 C 174.910156 190.929688 190.929688 174.910156 190.929688 155.085938 L 190.929688 35.765625 C 190.929688 16.019531 174.910156 0 155.089844 0 "/>
</g>
</g>
</svg>
