<?xml version="1.0" encoding="utf-8"?>
<!-- Generator: Adobe Illustrator 22.1.0, SVG Export Plug-In . SVG Version: 6.00 Build 0)  -->
<svg version="1.1" id="Layer_1" xmlns="http://www.w3.org/2000/svg" xmlns:xlink="http://www.w3.org/1999/xlink" x="0px" y="0px"
	 viewBox="0 0 512 512" style="enable-background:new 0 0 512 512;" xml:space="preserve">
<g>
	<title>hackerearth</title>
	<g>
		<path d="M439.4,31H224.3v121.7h2c15.7-20.2,41.5-29.9,66.7-25l-0.4-0.1c36.8,2.7,73.3,25,75.4,96.7V366c-0.2,2.9-2.5,5.3-5.3,5.4
			H323c-2.9,0-5.3-2.4-5.3-5.4V228.8c0-33.3-11-58.4-43.9-58.4H273c-28.3,0-50.6,23.9-48.8,52.1v-0.2V366c0,3-2.4,5.4-5.3,5.4h-39.3
			c-3,0-5.4-2.4-5.4-5.4V31h-69.6c-15.4,0-28,12.2-28.6,27.5V452c0.6,16.1,13.7,28.9,29.8,29h333.6c15.5-0.4,27.5-13.6,26.5-29.1
			v0.1V58.5c1-14.9-10.9-27.5-25.8-27.5L439.4,31L439.4,31z M391.7,424.4H150.1v-24.8h241.6V424.4z"/>
	</g>
</g>
</svg>
